<svg width="15" height="15" viewBox="0 0 15 15" fill="none" xmlns="http://www.w3.org/2000/svg">
<path d="M12.4969 4.18C13.0572 3.84505 13.4764 3.31765 13.6763 2.69625C13.1498 3.00864 12.5738 3.22868 11.9731 3.34687C11.568 2.91834 11.0332 2.63495 10.4512 2.54037C9.86909 2.4458 9.27207 2.5453 8.75213 2.82353C8.2322 3.10177 7.81821 3.54329 7.57398 4.08004C7.32975 4.61679 7.26883 5.21896 7.40063 5.79375C6.33431 5.74021 5.29116 5.46305 4.33889 4.98024C3.38663 4.49743 2.54653 3.81977 1.87313 2.99125C1.53067 3.58194 1.42588 4.28083 1.58004 4.94598C1.7342 5.61114 2.13575 6.19268 2.70313 6.5725C2.27733 6.55881 1.86096 6.44352 1.48876 6.23625V6.27C1.48888 6.88936 1.70322 7.48961 2.09542 7.96896C2.48763 8.44831 3.03356 8.77725 3.64063 8.9C3.24567 9.00745 2.83139 9.02327 2.42938 8.94625C2.60109 9.47895 2.93483 9.94475 3.38401 10.2786C3.8332 10.6125 4.37542 10.7979 4.93501 10.8087C3.9849 11.5545 2.81156 11.9589 1.60376 11.9569C1.38938 11.9569 1.17563 11.9444 0.963135 11.92C2.18964 12.7081 3.61712 13.1264 5.07501 13.125C6.07914 13.1319 7.07463 12.9392 8.00365 12.5581C8.93267 12.177 9.7767 11.6151 10.4867 10.905C11.1967 10.1949 11.7586 9.35086 12.1396 8.42181C12.5206 7.49275 12.7132 6.49725 12.7063 5.49312C12.7063 5.37687 12.7038 5.26125 12.6981 5.14625C13.2234 4.76663 13.6768 4.29635 14.0369 3.7575C13.5475 3.9744 13.0284 4.11682 12.4969 4.18Z" fill="white"/>
</svg>
