<svg width="11" height="11" viewBox="0 0 11 11" fill="none" xmlns="http://www.w3.org/2000/svg">
<path d="M2.29167 10.0833C2.03958 10.0833 1.82371 9.9935 1.64404 9.81383C1.46438 9.63416 1.3747 9.41844 1.375 9.16667V2.75H2.29167V9.16667H7.33333V10.0833H2.29167ZM4.125 8.25C3.87292 8.25 3.65704 8.16016 3.47738 7.9805C3.29771 7.80083 3.20803 7.58511 3.20833 7.33333V1.83333C3.20833 1.58125 3.29817 1.36537 3.47783 1.18571C3.6575 1.00604 3.87322 0.916359 4.125 0.916665H8.25C8.50208 0.916665 8.71796 1.0065 8.89763 1.18616C9.07729 1.36583 9.16697 1.58155 9.16667 1.83333V7.33333C9.16667 7.58541 9.07683 7.80129 8.89717 7.98096C8.7175 8.16062 8.50178 8.2503 8.25 8.25H4.125ZM4.125 7.33333H8.25V1.83333H4.125V7.33333Z" fill="#8A8FCB"/>
</svg>
