<svg width="11" height="11" viewBox="0 0 11 11" fill="none" xmlns="http://www.w3.org/2000/svg">
<g clip-path="url(#clip0_45_100)">
<path d="M2.28614 5.23713C2.28613 5.1757 2.29825 5.11488 2.32181 5.05815C2.34537 5.00142 2.3799 4.9499 2.42342 4.90656C2.46694 4.86322 2.51859 4.82891 2.5754 4.8056C2.63222 4.78228 2.69308 4.77043 2.75449 4.77072L3.53095 4.77326C3.65476 4.77326 3.77349 4.82246 3.86104 4.91004C3.94858 4.99761 3.99776 5.11639 3.99776 5.24024V8.17743C4.08523 8.15151 4.19741 8.12386 4.3203 8.09502C4.40563 8.07493 4.48167 8.0266 4.5361 7.95787C4.59054 7.88913 4.62017 7.80402 4.62019 7.71633V4.073C4.62018 3.94913 4.66935 3.83034 4.7569 3.74274C4.84444 3.65514 4.96318 3.60592 5.087 3.6059H5.86504C5.98885 3.60593 6.10759 3.65516 6.19513 3.74275C6.28267 3.83035 6.33185 3.94914 6.33185 4.073V7.4545C6.33185 7.4545 6.52656 7.37561 6.71636 7.29549C6.78684 7.26567 6.84698 7.21574 6.88928 7.15195C6.93158 7.08816 6.95417 7.01332 6.95424 6.93676V2.90534C6.95423 2.84402 6.9663 2.7833 6.98975 2.72664C7.01321 2.66999 7.04758 2.61851 7.09092 2.57515C7.13426 2.53178 7.18572 2.49738 7.24235 2.47391C7.29898 2.45044 7.35967 2.43836 7.42097 2.43836H8.19901C8.32282 2.43836 8.44156 2.48755 8.52911 2.57513C8.61666 2.6627 8.66585 2.78148 8.66586 2.90534V6.225C9.34037 5.73599 10.024 5.1478 10.5665 4.44057C10.6452 4.33791 10.6972 4.21735 10.7181 4.08966C10.7389 3.96197 10.7278 3.83111 10.6857 3.70876C10.3187 2.63865 9.63016 1.70807 8.71434 1.04427C7.79853 0.380467 6.70011 0.0158432 5.56927 0.000254486C2.5199 -0.0407239 -0.000242646 2.44941 5.69032e-05 5.50027C-0.00293721 6.46567 0.248936 7.41474 0.730208 8.25152C0.796579 8.36597 0.894221 8.4591 1.01167 8.51996C1.12911 8.58083 1.26148 8.6069 1.39322 8.59511C1.54041 8.58215 1.72366 8.56384 1.94151 8.53825C2.03633 8.52746 2.12387 8.48216 2.18745 8.41097C2.25104 8.33978 2.28623 8.24769 2.28633 8.15222V5.23713" fill="white"/>
<path d="M2.2692 9.94782C3.08929 10.5446 4.05843 10.9029 5.0694 10.9829C6.08038 11.0629 7.09377 10.8616 7.99748 10.4012C8.90118 9.94085 9.65996 9.23936 10.1899 8.37437C10.7198 7.50938 11.0002 6.5146 11 5.5001C11 5.37345 10.9941 5.24823 10.9857 5.12369C8.97711 8.12028 5.26855 9.52137 2.26917 9.94794" fill="#BFCFDA"/>
</g>
<defs>
<clipPath id="clip0_45_100">
<rect width="11" height="11" fill="white"/>
</clipPath>
</defs>
</svg>
