<svg width="29" height="29" viewBox="0 0 29 29" fill="none" xmlns="http://www.w3.org/2000/svg">
<path d="M13.2917 14.5C11.9625 14.5 10.8247 14.0267 9.87813 13.0802C8.9316 12.1337 8.45833 10.9958 8.45833 9.66666C8.45833 8.3375 8.9316 7.19965 9.87813 6.25312C10.8247 5.30659 11.9625 4.83333 13.2917 4.83333C14.6208 4.83333 15.7587 5.30659 16.7052 6.25312C17.6517 7.19965 18.125 8.3375 18.125 9.66666C18.125 10.9958 17.6517 12.1337 16.7052 13.0802C15.7587 14.0267 14.6208 14.5 13.2917 14.5ZM26.7042 28.3958L22.8375 24.5292C22.4146 24.7708 21.9615 24.9722 21.4781 25.1333C20.9948 25.2944 20.4813 25.375 19.9375 25.375C18.4271 25.375 17.143 24.8465 16.0853 23.7897C15.0284 22.732 14.5 21.4479 14.5 19.9375C14.5 18.4271 15.0284 17.143 16.0853 16.0853C17.143 15.0284 18.4271 14.5 19.9375 14.5C21.4479 14.5 22.732 15.0284 23.7897 16.0853C24.8466 17.143 25.375 18.4271 25.375 19.9375C25.375 20.4812 25.2944 20.9948 25.1333 21.4781C24.9722 21.9615 24.7708 22.4146 24.5292 22.8375L28.3958 26.7042L26.7042 28.3958ZM19.9375 22.9583C20.7833 22.9583 21.4983 22.6663 22.0823 22.0823C22.6663 21.4983 22.9583 20.7833 22.9583 19.9375C22.9583 19.0917 22.6663 18.3767 22.0823 17.7927C21.4983 17.2087 20.7833 16.9167 19.9375 16.9167C19.0917 16.9167 18.3767 17.2087 17.7927 17.7927C17.2087 18.3767 16.9167 19.0917 16.9167 19.9375C16.9167 20.7833 17.2087 21.4983 17.7927 22.0823C18.3767 22.6663 19.0917 22.9583 19.9375 22.9583ZM13.3219 15.7083C12.476 16.9569 12.0531 18.3667 12.0531 19.9375C12.0531 21.5083 12.476 22.9181 13.3219 24.1667H3.625V20.8135C3.625 20.1288 3.79618 19.4944 4.13854 18.9104C4.4809 18.3264 4.95417 17.8833 5.55833 17.5812C6.58542 17.0576 7.7434 16.6146 9.03229 16.2521C10.3212 15.8896 11.751 15.7083 13.3219 15.7083Z" fill="white"/>
</svg>
