<svg width="18" height="18" viewBox="0 0 18 18" fill="none" xmlns="http://www.w3.org/2000/svg">
<path d="M14.4525 3.9975C13.455 3.5325 12.375 3.195 11.25 3C11.2401 2.99969 11.2303 3.00154 11.2212 3.00543C11.2122 3.00931 11.2041 3.01514 11.1975 3.0225C11.0625 3.27 10.905 3.5925 10.8 3.84C9.60675 3.66 8.39325 3.66 7.2 3.84C7.095 3.585 6.9375 3.27 6.795 3.0225C6.7875 3.0075 6.765 3 6.7425 3C5.6175 3.195 4.545 3.5325 3.54 3.9975C3.5325 3.9975 3.525 4.005 3.5175 4.0125C1.4775 7.065 0.914996 10.035 1.1925 12.975C1.1925 12.99 1.2 13.005 1.215 13.0125C2.565 14.0025 3.8625 14.6025 5.145 15C5.1675 15.0075 5.19 15 5.1975 14.985C5.4975 14.5725 5.7675 14.1375 6 13.68C6.015 13.65 6 13.62 5.97 13.6125C5.5425 13.4475 5.1375 13.2525 4.74 13.0275C4.71 13.0125 4.71 12.9675 4.7325 12.945C4.815 12.885 4.8975 12.8175 4.98 12.7575C4.995 12.7425 5.0175 12.7425 5.0325 12.75C7.6125 13.9275 10.395 13.9275 12.945 12.75C12.96 12.7425 12.9825 12.7425 12.9975 12.7575C13.08 12.825 13.1625 12.885 13.245 12.9525C13.275 12.975 13.275 13.02 13.2375 13.035C12.8475 13.2675 12.435 13.455 12.0075 13.62C11.9775 13.6275 11.97 13.665 11.9775 13.6875C12.2175 14.145 12.4875 14.58 12.78 14.9925C12.8025 15 12.825 15.0075 12.8475 15C14.1375 14.6025 15.435 14.0025 16.785 13.0125C16.8 13.005 16.8075 12.99 16.8075 12.975C17.1375 9.5775 16.26 6.63 14.4825 4.0125C14.475 4.005 14.4675 3.9975 14.4525 3.9975ZM6.39 11.1825C5.6175 11.1825 4.9725 10.47 4.9725 9.5925C4.9725 8.715 5.6025 8.0025 6.39 8.0025C7.185 8.0025 7.815 8.7225 7.8075 9.5925C7.8075 10.47 7.1775 11.1825 6.39 11.1825ZM11.6175 11.1825C10.845 11.1825 10.2 10.47 10.2 9.5925C10.2 8.715 10.83 8.0025 11.6175 8.0025C12.4125 8.0025 13.0425 8.7225 13.035 9.5925C13.035 10.47 12.4125 11.1825 11.6175 11.1825Z" fill="#101221"/>
</svg>
