<svg width="56" height="55" viewBox="0 0 56 55" fill="none" xmlns="http://www.w3.org/2000/svg">
<path d="M49 18.3333C49 14.536 41.6873 11.4583 32.6667 11.4583C23.646 11.4583 16.3333 14.536 16.3333 18.3333M49 18.3333V27.5C49 29.8375 46.2327 31.9 42 33.1421C39.354 33.9212 36.1363 34.375 32.6667 34.375C29.197 34.375 25.9793 33.919 23.3333 33.1421C19.103 31.9 16.3333 29.8375 16.3333 27.5V18.3333M49 18.3333C49 20.6708 46.2327 22.7333 42 23.9754C39.354 24.7546 36.1363 25.2083 32.6667 25.2083C29.197 25.2083 25.9793 24.7523 23.3333 23.9754C19.103 22.7333 16.3333 20.6708 16.3333 18.3333" stroke="white" stroke-width="2.3" stroke-linecap="round" stroke-linejoin="round"/>
<path d="M7 27.5V36.6667C7 39.0042 9.76967 41.0667 14 42.3088C16.646 43.0879 19.8637 43.5417 23.3333 43.5417C26.803 43.5417 30.0207 43.0856 32.6667 42.3088C36.897 41.0667 39.6667 39.0042 39.6667 36.6667V34.375M7 27.5C7 24.7569 10.815 22.3896 16.3333 21.2873M7 27.5C7 29.8375 9.76967 31.9 14 33.1421C16.646 33.9213 19.8637 34.375 23.3333 34.375C24.955 34.375 26.5207 34.2765 28 34.0908" stroke="white" stroke-width="2.3" stroke-linecap="round" stroke-linejoin="round"/>
</svg>
