<svg width="15" height="13" viewBox="0 0 15 13" fill="none" xmlns="http://www.w3.org/2000/svg">
<path d="M1.67871 3.16895C1.69629 2.99609 1.62891 2.82324 1.5 2.70605L0.178711 1.1123V0.875H4.28613L7.46191 7.83887L10.2539 0.875H14.1709V1.1123L13.04 2.19629C12.9434 2.26953 12.8936 2.39258 12.9141 2.5127V10.4814C12.8936 10.6016 12.9434 10.7246 13.04 10.7979L14.1445 11.8818V12.1191H8.58691V11.8818L9.73242 10.7715C9.84375 10.6602 9.84375 10.625 9.84375 10.4551V4.01562L6.65918 12.0986H6.22852L2.52539 4.01562V9.43262C2.49316 9.66113 2.56934 9.88965 2.73047 10.0537L4.21875 11.8584V12.0957H0V11.8613L1.48828 10.0537C1.64648 9.88965 1.71973 9.6582 1.67871 9.43262V3.16895Z" fill="#101121"/>
</svg>
