<svg width="15" height="14" viewBox="0 0 15 14" fill="none" xmlns="http://www.w3.org/2000/svg">
<path d="M1.25 2.91667C1.25 2.60725 1.3817 2.3105 1.61612 2.09171C1.85054 1.87292 2.16848 1.75 2.5 1.75H12.5C12.8315 1.75 13.1495 1.87292 13.3839 2.09171C13.6183 2.3105 13.75 2.60725 13.75 2.91667V9.33333C13.75 9.64275 13.6183 9.9395 13.3839 10.1583C13.1495 10.3771 12.8315 10.5 12.5 10.5H8.125V11.6667H10C10.1658 11.6667 10.3247 11.7281 10.4419 11.8375C10.5592 11.9469 10.625 12.0953 10.625 12.25C10.625 12.4047 10.5592 12.5531 10.4419 12.6625C10.3247 12.7719 10.1658 12.8333 10 12.8333H5C4.83424 12.8333 4.67527 12.7719 4.55806 12.6625C4.44085 12.5531 4.375 12.4047 4.375 12.25C4.375 12.0953 4.44085 11.9469 4.55806 11.8375C4.67527 11.7281 4.83424 11.6667 5 11.6667H6.875V10.5H2.5C2.16848 10.5 1.85054 10.3771 1.61612 10.1583C1.3817 9.9395 1.25 9.64275 1.25 9.33333V2.91667ZM12.5 9.33333V2.91667H2.5V9.33333H12.5Z" fill="white"/>
</svg>
